<?xml version="1.0" encoding="utf-8"?>
<!-- Generator: Adobe Illustrator 22.0.1, SVG Export Plug-In . SVG Version: 6.00 Build 0)  -->
<svg version="1.1" xmlns="http://www.w3.org/2000/svg" xmlns:xlink="http://www.w3.org/1999/xlink" x="0px" y="0px"
	 viewBox="0 0 1920 900" style="enable-background:new 0 0 1920 900;" xml:space="preserve">
<style type="text/css">
	.st0{fill:#F4F4F4;stroke:#000000;stroke-miterlimit:10;}
	.st1{fill:#FDB900;}
	.st2{opacity:0.5;}
	.st3{fill:#06E9EF;}
	.st4{opacity:9.000000e-02;fill:#616161;enable-background:new    ;}
	.st5{fill:#006ABD;}
	.st6{opacity:0.5;fill:#005CA3;enable-background:new    ;}
	.st7{opacity:0.7;fill:#006ABD;enable-background:new    ;}
	.st8{opacity:0.5;fill:#006ABD;enable-background:new    ;}
	.st9{opacity:0.3;fill:#FDB900;enable-background:new    ;}
	.st10{fill:url(#SVGID_1_);}
	.st11{fill:url(#SVGID_2_);}
	.st12{opacity:0.3;}
	.st13{opacity:0.9;}
	.st14{opacity:0.9;fill:#006ABD;enable-background:new    ;}
	.st15{opacity:0.1;fill:#FFFFFF;enable-background:new    ;}
</style>
<g id="Layer_2">
	<rect x="11.4" y="0.3" class="st0" width="1908.6" height="899.7"/>
</g>
<g id="Layer_1">
	<g>
		<path class="st1" d="M1176.4,797.7v-24.9c0-4,1.5-6.7,4.5-8.1c3-1.4,8-3,14.9-4.9c7-1.8,12.2-4.2,15.7-7.1
			c3.5-2.9,5.2-7.7,5.2-14.3c0-5.3-2.1-9.8-6.2-13.4c-4.1-3.6-9-5.5-14.7-5.5c-7.5,0-14.8,4.1-22,12.3c-7.2,8.2-13.2,12.3-18,12.3
			c-4.5,0-8.1-1.7-10.9-5c-2.8-3.3-4.2-7.6-4.2-12.9c0-11.9,5.9-21.8,17.8-29.5c11.9-7.7,24.3-11.6,37.4-11.6
			c17.1,0,31.3,4.9,42.7,14.6c11.4,9.7,17,22.6,17,38.7c0,13.4-3.9,24.4-11.6,32.8c-7.8,8.5-18.3,14.3-31.7,17.4v9
			c0,4.8-1.7,8.9-5.2,12.2c-3.5,3.3-7.7,5-12.8,5c-5.4,0-9.8-1.5-13-4.6C1178,807.2,1176.4,803.1,1176.4,797.7z M1174.9,849
			c0-5.3,1.9-9.9,5.7-13.7c3.8-3.8,8.3-5.7,13.6-5.7c5.4,0,10.1,1.9,13.8,5.7c3.8,3.8,5.7,8.4,5.7,13.7c0,5.3-1.9,9.9-5.7,13.7
			c-3.8,3.8-8.4,5.7-13.8,5.7c-5.3,0-9.8-1.9-13.6-5.7C1176.8,858.9,1174.9,854.3,1174.9,849z"/>
	</g>
	<g class="st2">
		<g>
			<path class="st1" d="M1414.3,784.2L1414.3,784.2c-6.5,0-12.1-2.4-16.7-7c-4.6-4.7-7-10.3-7-16.9c0-6.5,2.3-12.2,7-16.9
				c4.6-4.7,10.2-7,16.7-7c6.5,0,12.2,2.4,17,7c4.8,4.7,7.2,10.4,7.2,16.9c0,6.5-2.4,12.2-7.2,16.9
				C1426.5,781.9,1420.8,784.2,1414.3,784.2z M1414.3,737.1c-6.3,0-11.8,2.3-16.3,6.8c-4.5,4.5-6.8,10.1-6.8,16.4
				c0,6.4,2.3,11.9,6.8,16.4c4.5,4.5,10,6.8,16.3,6.8l0,0.3v-0.3c6.3,0,11.8-2.3,16.5-6.8c4.7-4.6,7-10.1,7-16.4
				c0-6.3-2.4-11.9-7-16.4C1426.1,739.4,1420.6,737.1,1414.3,737.1z M1414.3,693.1L1414.3,693.1c-6.8,0-11.8-2.1-14.9-6.1
				c-3.7-3.7-5.6-9-5.6-15.9v-52c0-11.1,1.7-18.4,5.2-21.9c3.4-3.4,13.1-6.8,28.8-10c15.6-3.2,26.5-9.5,32.4-18.7
				c5.9-9.3,9-19.4,9-30c0-15.2-5.1-27.5-15.2-36.6c-10.1-9.1-23.1-13.7-38.6-13.7c-12.8,0-23.9,2.9-32.9,8.5
				c-9,5.6-15.1,13.3-18.1,22.7c-3.1,9.7-6.3,15.7-9.6,18.2c-3.3,2.5-7,3.8-11.1,3.8c-5.6,0-10.4-2-14.3-5.9
				c-3.9-3.9-5.9-9.2-5.9-15.7c0-19.8,9.6-36.6,28.6-50c18.9-13.4,39.8-20.2,61.9-20.2c28.3,0,52.2,8.1,71,24
				c18.8,16,28.3,36.5,28.3,61.1c0,24.2-7.1,44.4-21,59.9c-13.9,15.4-33.1,25.8-57.1,30.7l0,45.8c0,7.3-1.8,12.8-5.2,16.5
				C1426.5,691.3,1421.2,693.1,1414.3,693.1z M1415.5,487.6c15.7,0,28.9,4.7,39.1,13.9c10.2,9.2,15.4,21.7,15.4,37.1
				c0,10.7-3.1,21-9.1,30.3c-6,9.4-17.1,15.8-32.8,19c-15.6,3.2-25.2,6.5-28.5,9.8c-3.3,3.3-5,10.5-5,21.4v52
				c0,6.6,1.8,11.8,5.4,15.4c3,3.9,7.8,5.9,14.4,5.9c6.7,0,11.8-1.8,15.2-5.3c3.4-3.5,5.1-8.9,5.1-16l0-46.3l0.3-0.1
				c24-4.9,43.2-15.2,57-30.5c13.8-15.4,20.9-35.4,20.9-59.5c0-24.4-9.5-44.7-28.1-60.6c-18.7-15.9-42.4-23.9-70.6-23.9
				c-22,0-42.7,6.8-61.6,20.1c-18.8,13.3-28.3,29.9-28.3,49.5c0,6.4,1.9,11.5,5.7,15.3c3.8,3.8,8.4,5.7,13.9,5.7
				c3.9,0,7.5-1.2,10.7-3.6c3.2-2.4,6.3-8.4,9.4-17.9c3.1-9.6,9.3-17.3,18.4-23.1C1391.3,490.5,1402.5,487.6,1415.5,487.6z"/>
		</g>
	</g>
	<g>
		<path class="st3" d="M55,37.4c-18.5,0-36.9,0.8-55,2.2V40c18.1-1.5,36.5-2.2,55-2.2c375.9,0,681.8,305.9,681.8,681.8
			c0,62.4-8.4,122.9-24.2,180.4h0.5c15.8-57.5,24.2-118,24.2-180.4C737.3,343.4,431.2,37.4,55,37.4z"/>
		<path class="st3" d="M55,99.4c-18.5,0-36.9,0.8-55,2.4v0.4c18.1-1.6,36.5-2.4,55-2.4c341.8,0,619.8,278,619.8,619.8
			c0,56.7-7.7,111.6-22,163.8h0.5c14.3-52.2,21.9-107.1,21.9-163.8C675.2,377.6,397,99.4,55,99.4z"/>
		<path class="st3" d="M55,161.4c-18.6,0-36.9,0.9-55,2.7v0.4c18.1-1.8,36.4-2.7,55-2.7c307.6,0,557.8,250.2,557.8,557.8
			c0,45-5.4,88.8-15.5,130.8h0.5c10.1-42,15.5-85.7,15.5-130.8C613.2,411.8,362.8,161.4,55,161.4z"/>
		<path class="st3" d="M55,223.4c-18.6,0-36.9,1-55,3v0.4c18.1-2,36.4-3,55-3c273.4,0,495.8,222.4,495.8,495.8
			c0,45.2-6.1,89.1-17.5,130.8h0.5c11.4-41.7,17.5-85.5,17.5-130.8C551.2,446,328.6,223.4,55,223.4z"/>
		<path class="st3" d="M55,285.4c-18.6,0-37,1.2-55,3.5v0.4c18-2.3,36.4-3.5,55-3.5c239.2,0,433.8,194.6,433.8,433.8
			c0,55.2-10.4,108.1-29.3,156.8h0.5c18.9-48.6,29.3-101.5,29.3-156.8C489.2,480.2,294.4,285.4,55,285.4z"/>
		<path class="st3" d="M55,347.4c-18.7,0-37,1.4-55,4.1v0.4c18-2.7,36.3-4.1,55-4.1c205,0,371.8,166.8,371.8,371.8
			c0,56-12.4,109.1-34.7,156.8h0.5c22.2-47.7,34.6-100.8,34.6-156.8C427.2,514.4,260.2,347.4,55,347.4z"/>
		<path class="st3" d="M346.9,824.5c11.8-32.8,18.3-68.1,18.3-104.8c0-171-139.2-310.2-310.2-310.2c-18.8,0-37.1,1.7-55,4.9v0.5
			c17.9-3.2,36.2-4.9,55-4.9c170.8,0,309.8,139,309.8,309.8c0,36.3-6.3,71.1-17.8,103.5L346.9,824.5L346.9,824.5z"/>
		<path class="st3" d="M55,471.4c-18.9,0-37.3,2.1-55,6.1v0.5c17.7-4,36.1-6.2,55-6.2c136.6,0,247.8,111.1,247.8,247.7
			c0,25.6-3.9,50.2-11.1,73.4h0.5c7.2-23.2,11.1-47.9,11.1-73.4C303.2,582.8,191.9,471.4,55,471.4z"/>
		<path class="st3" d="M55,533.4c-19.1,0-37.6,2.9-55,8.3v0.5c17.4-5.4,35.9-8.3,55-8.3c102.4,0,185.7,83.3,185.7,185.7
			c0,26.1-5.4,50.9-15.2,73.4h0.5c9.7-22.5,15.1-47.4,15.1-73.4C241.2,617,157.7,533.4,55,533.4z"/>
		<path class="st3" d="M55,595.4c-19.7,0-38.4,4.6-55,12.9v0.5c16.6-8.3,35.3-12.9,55-12.9c68.2,0,123.7,55.5,123.7,123.7
			c0,27.5-9,52.9-24.2,73.4h0.6c15.1-20.6,24.1-46,24.1-73.4C179.2,651.1,123.5,595.4,55,595.4z"/>
	</g>
	<g>
		<path class="st4" d="M554.4,808.1c-29-39.7-52.7-62.4-110.3-69.4c-17.8-2.2-37.2-2.7-57.6-1.6c-15.6,0.8-30.1,0.5-43.2-1.1l0,0
			c-68-8.3-94.5-48.8-128-100.1c-19.3-29.5-39.2-60-68.5-85.9c-34.6-30.6-75.7-48.4-125.6-54.5C14,494.6,6.9,494.1,0,494V785
			l424.4,89.8C510.2,898.6,574.4,835.4,554.4,808.1z"/>
		<path class="st5" d="M539.6,813.9c-23.7-37-69.9-66.7-158-62C148.6,764.4,208.4,534.4,9.2,510.1C6,509.7,3,509.4,0,509.3v298.7
			c125.4-11.2,255.6,58.2,356,75.8c43.4,7.3,107.6,0.1,149.7-14.9C531.2,857.8,550.6,839,539.6,813.9z"/>
		<path class="st6" d="M18.6,662.5c-6.2-0.8-12.4-1.2-18.6-1.5v146.9c103.6-9.3,210.4,36.5,301,62.6
			C215,786.4,184.2,682.7,18.6,662.5z"/>
	</g>
	<g class="st2">
		<circle class="st5" cx="1649.6" cy="687.3" r="4.9"/>
		<circle class="st5" cx="1670.2" cy="687.3" r="4.9"/>
		<circle class="st5" cx="1690.8" cy="687.3" r="4.9"/>
		<circle class="st5" cx="1711.4" cy="687.3" r="4.9"/>
		<circle class="st5" cx="1732" cy="687.3" r="4.9"/>
		<circle class="st5" cx="1752.6" cy="687.3" r="4.9"/>
		<circle class="st5" cx="1773.2" cy="687.3" r="4.9"/>
		<circle class="st5" cx="1649.6" cy="705.2" r="4.9"/>
		<circle class="st5" cx="1670.2" cy="705.2" r="4.9"/>
		<circle class="st5" cx="1690.8" cy="705.2" r="4.9"/>
		<circle class="st5" cx="1711.4" cy="705.2" r="4.9"/>
		<circle class="st5" cx="1732" cy="705.2" r="4.9"/>
		<circle class="st5" cx="1752.6" cy="705.2" r="4.9"/>
		<circle class="st5" cx="1773.2" cy="705.2" r="4.9"/>
		<circle class="st5" cx="1649.6" cy="723.1" r="4.9"/>
		<circle class="st5" cx="1670.2" cy="723.1" r="4.9"/>
		<circle class="st5" cx="1690.8" cy="723.1" r="4.9"/>
		<circle class="st5" cx="1711.4" cy="723.1" r="4.9"/>
		<circle class="st5" cx="1732" cy="723.1" r="4.9"/>
		<circle class="st5" cx="1752.6" cy="723.1" r="4.9"/>
		<circle class="st5" cx="1773.2" cy="723.1" r="4.9"/>
		<circle class="st5" cx="1649.6" cy="741" r="4.9"/>
		<circle class="st5" cx="1670.2" cy="741" r="4.9"/>
		<circle class="st5" cx="1690.8" cy="741" r="4.9"/>
		<circle class="st5" cx="1711.4" cy="741" r="4.9"/>
		<circle class="st5" cx="1732" cy="741" r="4.9"/>
		<circle class="st5" cx="1752.6" cy="741" r="4.9"/>
		<circle class="st5" cx="1773.2" cy="741" r="4.9"/>
		<circle class="st5" cx="1649.6" cy="758.9" r="4.9"/>
		<circle class="st5" cx="1670.2" cy="758.9" r="4.9"/>
		<circle class="st5" cx="1690.8" cy="758.9" r="4.9"/>
		<circle class="st5" cx="1711.4" cy="758.9" r="4.9"/>
		<circle class="st5" cx="1732" cy="758.9" r="4.9"/>
		<circle class="st5" cx="1752.6" cy="758.9" r="4.9"/>
		<circle class="st5" cx="1773.2" cy="758.9" r="4.9"/>
		<circle class="st5" cx="1649.6" cy="776.8" r="4.9"/>
		<circle class="st5" cx="1670.2" cy="776.8" r="4.9"/>
		<circle class="st5" cx="1690.8" cy="776.8" r="4.9"/>
		<circle class="st5" cx="1711.4" cy="776.8" r="4.9"/>
		<circle class="st5" cx="1732" cy="776.8" r="4.9"/>
		<circle class="st5" cx="1752.6" cy="776.8" r="4.9"/>
		<circle class="st5" cx="1773.2" cy="776.8" r="4.9"/>
		<circle class="st5" cx="1649.6" cy="794.8" r="4.9"/>
		<circle class="st5" cx="1670.2" cy="794.8" r="4.9"/>
		<circle class="st5" cx="1690.8" cy="794.8" r="4.9"/>
		<circle class="st5" cx="1711.4" cy="794.8" r="4.9"/>
		<circle class="st5" cx="1732" cy="794.8" r="4.9"/>
		<circle class="st5" cx="1752.6" cy="794.8" r="4.9"/>
		<circle class="st5" cx="1773.2" cy="794.8" r="4.9"/>
		<circle class="st5" cx="1649.6" cy="812.7" r="4.9"/>
		<circle class="st5" cx="1670.2" cy="812.7" r="4.9"/>
		<circle class="st5" cx="1690.8" cy="812.7" r="4.9"/>
		<circle class="st5" cx="1711.4" cy="812.7" r="4.9"/>
		<circle class="st5" cx="1732" cy="812.7" r="4.9"/>
		<circle class="st5" cx="1752.6" cy="812.7" r="4.9"/>
		<circle class="st5" cx="1773.2" cy="812.7" r="4.9"/>
	</g>
	<g>
		<path class="st1" d="M1322.9,839.9c-5.2,0.1-9.4-4-9.5-9.2c-0.1-5.2,4-9.4,9.2-9.5c5.2-0.1,9.4,4,9.5,9.2
			C1332.2,835.6,1328.1,839.9,1322.9,839.9z M1322.7,825.6c-2.8,0-5,2.3-4.9,5.1c0,2.8,2.3,5,5.1,4.9s5-2.3,4.9-5.1
			C1327.8,827.7,1325.5,825.5,1322.7,825.6z"/>
		<path class="st7" d="M761.2,159.7c-5.2,0.1-9.4-4-9.5-9.2c-0.1-5.2,4-9.4,9.2-9.5c5.2-0.1,9.4,4,9.5,9.2
			C770.5,155.3,766.4,159.6,761.2,159.7z M761,145.3c-2.8,0-5,2.3-4.9,5.1c0,2.8,2.3,5,5.1,4.9c2.8,0,5-2.3,4.9-5.1
			C766,147.5,763.7,145.3,761,145.3z"/>
		<path class="st1" d="M1675.6,486.3c-16,0.3-29.3-12.5-29.6-28.6c-0.3-16,12.5-29.3,28.5-29.6c16-0.3,29.3,12.5,29.6,28.6
			C1704.4,472.8,1691.6,486.1,1675.6,486.3z M1674.8,441.7c-8.6,0.1-15.5,7.3-15.3,15.9c0.2,8.6,7.3,15.5,15.9,15.3
			c8.6-0.1,15.5-7.3,15.3-15.9C1690.6,448.4,1683.4,441.5,1674.8,441.7z"/>
		<path class="st8" d="M1478,730.2l0,16.5h-16.5c-4.1,0-7.3,3.3-7.3,7.3c0,4.1,3.3,7.3,7.3,7.3l16.5,0l0,16.5c0,4.1,3.3,7.3,7.3,7.3
			c4,0,7.3-3.3,7.3-7.3v-16.5l16.5,0c4,0,7.3-3.3,7.3-7.3c0-4.1-3.3-7.3-7.3-7.3l-16.5,0l0-16.5c0-4.1-3.3-7.3-7.3-7.3
			C1481.3,722.8,1478,726.1,1478,730.2z"/>
		<path class="st1" d="M1699.8,577.9l-14,14l-14-14c-1-1-2.5-1-3.5,0c-1,1-1,2.5,0,3.5l14,14l-14,14c-1,1-1,2.5,0,3.5
			c1,1,2.5,1,3.5,0l14-14l14,14c1,1,2.5,1,3.5,0c1-1,1-2.5,0-3.5l-14-14l14-14c1-1,1-2.5,0-3.5
			C1702.4,576.9,1700.8,576.9,1699.8,577.9z"/>
		<path class="st9" d="M347.2,205v14.8l-14.8,0c-1,0-1.9,0.8-1.9,1.9c0,1,0.8,1.9,1.9,1.9l14.8,0v14.8c0,1,0.8,1.9,1.9,1.9
			c1,0,1.9-0.8,1.9-1.9v-14.8l14.8,0c1,0,1.9-0.8,1.9-1.9c0-1-0.8-1.9-1.9-1.9l-14.8,0V205c0-1-0.8-1.9-1.9-1.9
			C348,203.1,347.2,203.9,347.2,205z"/>
	</g>
	<g>
		
			<linearGradient id="SVGID_1_" gradientUnits="userSpaceOnUse" x1="706.9958" y1="115.0376" x2="895.2458" y2="115.0376" gradientTransform="matrix(1 0 0 1 124.7241 674.7964)">
			<stop  offset="0" style="stop-color:#FDB900"/>
			<stop  offset="1" style="stop-color:#FFFFFF"/>
		</linearGradient>
		<path class="st10" d="M838.2,884L838.2,884c-3.6,0-6.5-2.9-6.5-6.5v-29.9c0-3.6,2.9-6.5,6.5-6.5h23.4c3.6,0,6.5-2.9,6.5-6.5v-23.4
			c0-3.6,2.9-6.5,6.5-6.5l23.4,0c3.6,0,6.5-2.9,6.5-6.5v-23.4c0-3.6,2.9-6.5,6.5-6.5h23.4c3.6,0,6.5-2.9,6.5-6.5v-23.4
			c0-3.6,2.9-6.5,6.5-6.5h23.4c3.6,0,6.5-2.9,6.5-6.5v-23.4c0-3.6,2.9-6.5,6.5-6.5h29.9c3.6,0,6.5,2.9,6.5,6.5l0,0
			c0,3.6-2.9,6.5-6.5,6.5h-16.9c-3.6,0-6.5,2.9-6.5,6.5v23.4c0,3.6-2.9,6.5-6.5,6.5l-23.4,0c-3.6,0-6.5,2.9-6.5,6.5v23.4
			c0,3.6-2.9,6.5-6.5,6.5h-23.4c-3.6,0-6.5,2.9-6.5,6.5v23.4c0,3.6-2.9,6.5-6.5,6.5h-23.4c-3.6,0-6.5,2.9-6.5,6.5v23.4
			c0,3.6-2.9,6.5-6.5,6.5h-23.4c-3.6,0-6.5,2.9-6.5,6.5v16.9C844.7,881.1,841.8,884,838.2,884z"/>
	</g>
	<g>
		
			<linearGradient id="SVGID_2_" gradientUnits="userSpaceOnUse" x1="892.0349" y1="-515.7694" x2="988.9266" y2="-515.7694" gradientTransform="matrix(1 0 0 1 124.7241 674.7964)">
			<stop  offset="0" style="stop-color:#006ABD"/>
			<stop  offset="1" style="stop-color:#FFFFFF"/>
		</linearGradient>
		<path class="st11" d="M1020.1,207.5L1020.1,207.5c-1.8,0-3.3-1.5-3.3-3.3v-15.4c0-1.9,1.5-3.3,3.3-3.3h12c1.8,0,3.3-1.5,3.3-3.3
			v-12c0-1.9,1.5-3.3,3.3-3.3h12c1.8,0,3.3-1.5,3.3-3.3v-12c0-1.9,1.5-3.3,3.3-3.3h12c1.8,0,3.3-1.5,3.3-3.3v-12
			c0-1.8,1.5-3.3,3.3-3.3h12c1.8,0,3.3-1.5,3.3-3.3v-12c0-1.8,1.5-3.3,3.3-3.3h15.4c1.8,0,3.3,1.5,3.3,3.3l0,0
			c0,1.9-1.5,3.3-3.3,3.3h-8.7c-1.8,0-3.3,1.5-3.3,3.3v12c0,1.9-1.5,3.3-3.3,3.3h-12c-1.8,0-3.3,1.5-3.3,3.3v12
			c0,1.9-1.5,3.3-3.3,3.3h-12c-1.8,0-3.3,1.5-3.3,3.3v12c0,1.8-1.5,3.3-3.3,3.3h-12c-1.8,0-3.3,1.5-3.3,3.3v12
			c0,1.8-1.5,3.3-3.3,3.3h-12c-1.8,0-3.3,1.5-3.3,3.3v8.7C1023.4,206,1021.9,207.5,1020.1,207.5z"/>
	</g>
	<g class="st12">
		<path class="st1" d="M0.5,34.6c-0.2-0.2-0.3-0.3-0.5-0.5v13.2c0.2-0.1,0.4-0.3,0.5-0.5C3.9,43.5,3.9,38,0.5,34.6z"/>
		<circle class="st1" cx="20.1" cy="15.1" r="8.7"/>
		<circle class="st1" cx="16.7" cy="63" r="8.7"/>
		<circle class="st1" cx="42.4" cy="37.4" r="8.7"/>
		<circle class="st1" cx="68" cy="11.7" r="8.7"/>
		<circle class="st1" cx="13.4" cy="111" r="8.7"/>
		<circle class="st1" cx="39" cy="85.4" r="8.7"/>
		<circle class="st1" cx="64.7" cy="59.7" r="8.7"/>
		<circle class="st1" cx="90.4" cy="34" r="8.7"/>
		<path class="st1" d="M118.3,0h-4.5c-1.4,0.4-2.8,1.1-3.9,2.2c-3.4,3.4-3.4,8.9,0,12.3c3.4,3.4,8.9,3.4,12.3,0
			c3.4-3.4,3.4-8.9,0-12.3C121.1,1.1,119.7,0.4,118.3,0z"/>
		<circle class="st1" cx="10" cy="159" r="8.7"/>
		<circle class="st1" cx="35.7" cy="133.4" r="8.7"/>
		<circle class="st1" cx="61.4" cy="107.7" r="8.7"/>
		<circle class="st1" cx="87" cy="82" r="8.7"/>
		<circle class="st1" cx="112.7" cy="56.4" r="8.7"/>
		<circle class="st1" cx="138.4" cy="30.7" r="8.7"/>
		<path class="st1" d="M157,0c-2.4,3.4-2.1,8.1,0.9,11.2c3.4,3.4,8.9,3.4,12.3,0c3-3,3.3-7.8,0.9-11.2C171.1,0,157,0,157,0z"/>
		<path class="st1" d="M38.5,175.2c3.4,3.4,3.4,8.9,0,12.3c-3.4,3.4-8.9,3.4-12.3,0c-3.4-3.4-3.4-8.9,0-12.3
			C29.6,171.8,35.1,171.8,38.5,175.2z"/>
		<circle class="st1" cx="58" cy="155.7" r="8.7"/>
		<circle class="st1" cx="83.7" cy="130" r="8.7"/>
		<circle class="st1" cx="109.3" cy="104.3" r="8.7"/>
		<circle class="st1" cx="135" cy="78.7" r="8.7"/>
		<circle class="st1" cx="160.7" cy="53" r="8.7"/>
		<circle class="st1" cx="186.4" cy="27.3" r="8.7"/>
		<circle class="st1" cx="54.7" cy="203.7" r="8.7"/>
		<circle class="st1" cx="80.3" cy="178" r="8.7"/>
		<circle class="st1" cx="106" cy="152.3" r="8.7"/>
		<circle class="st1" cx="131.7" cy="126.7" r="8.7"/>
		<circle class="st1" cx="157.3" cy="101" r="8.7"/>
		<circle class="st1" cx="183" cy="75.3" r="8.7"/>
		<circle class="st1" cx="208.7" cy="49.7" r="8.7"/>
		<circle class="st1" cx="77" cy="226" r="8.7"/>
		<circle class="st1" cx="102.6" cy="200.3" r="8.7"/>
		<circle class="st1" cx="128.3" cy="174.7" r="8.7"/>
		<circle class="st1" cx="154" cy="149" r="8.7"/>
		<circle class="st1" cx="179.7" cy="123.3" r="8.7"/>
		<circle class="st1" cx="205.3" cy="97.6" r="8.7"/>
		<circle class="st1" cx="231" cy="72" r="8.7"/>
	</g>
	<g>
		<path class="st4" d="M1918.8,760.8c0,0-240.5,19-206.3-239.5c27.7-209.1-271.2-127.8-275.2-297.8
			c-2.7-112.9,238.6-104.6,20.2-223.5l462.2,0.3L1918.8,760.8z"/>
		<path class="st4" d="M1919,689.6c0,0-214.9,0-167.2-187.1c50.4-197.6-245.8-123.2-249-287c-2.2-108.9,184.4-129.1,42.3-215.4
			l374.5,0.3L1919,689.6z"/>
		<g class="st13">
			<path class="st14" d="M1920,658c0,0-182.5,24.6-142.5-184.6c27.5-143.9-138.6-106.3-204.2-209.2
				c-64-100.4,132.3-176.4-13.1-263.2l359.5-0.7L1920,658z"/>
		</g>
		<g>
			<path class="st14" d="M1919.5,104.3V0.3L1560,1c87,51.9,51.7,100,23,151.7c0.7,3,1.4,6.1,2,9.3c18.4,92.5,192.1,93.6,230.1,18
				C1853.1,104.3,1919.5,104.3,1919.5,104.3z"/>
			<path class="st14" d="M1919.5,196.5c-33,0.5-59.4,27.3-59.4,60.4s26.4,59.9,59.4,60.4V196.5z"/>
		</g>
		<path class="st15" d="M1726.1,0c-16.7,26.3-23.5,57.1-23.5,85.6c0,106.6,176.2,140.9,134.6,275.5
			c-55.5,179.5,82.5,174.4,82.5,174.4V0.3L1726.1,0z"/>
	</g>
</g>
</svg>
